<svg width="187" height="56" viewBox="0 0 187 56" fill="none" xmlns="http://www.w3.org/2000/svg">
<g clip-path="url(#clip0_1806_2)">
<path d="M12.5823 21.0572V31.9801H0V0H12.5823V10.9204H31.4813V0H44.0891V31.9801H31.4813V21.0572H12.5823Z" fill="white"/>
<path d="M67.2792 0.0480347H82.2392L99.5539 32.0256H85.3848L82.8336 26.5553H66.6797L64.1285 32.0256H49.967L67.2792 0.0480347ZM70.3406 18.7543H79.2008L74.7719 9.30258L70.3406 18.7543Z" fill="white"/>
<path d="M154.371 0.0480347H168.54L154.371 32.0256H139.411L132.326 16.0368L125.244 32.0256H110.282L96.1149 0.0480347H110.282L117.751 20.2963L125.244 0.0480347H139.411L146.878 20.2963L154.371 0.0480347Z" fill="white"/>
<path d="M187 0V31.9801H174.418V0H187Z" fill="white"/>
<path d="M28.3026 46.5129C32.489 46.7227 38.372 47.0184 38.3592 50.7395C38.3592 54.9863 33.4483 55.9924 28.1801 55.9924C22.912 55.9924 18.5571 55.3604 18.001 50.7471H24.1238C24.7922 51.8972 26.3433 52.1955 28.175 52.1955C30.0067 52.1955 32.2262 51.8972 32.2262 50.7471C32.2262 50.0923 30.4073 49.9887 28.0525 49.8825C23.8661 49.6727 17.9831 49.3769 17.9959 45.6686C17.9959 41.4217 22.9069 40.4055 28.175 40.4055C33.4431 40.4055 37.798 41.0248 38.3541 45.6686H32.2313C31.5629 44.4956 30.0118 44.2201 28.1801 44.2201C26.3484 44.2201 24.1289 44.4729 24.1289 45.6686C24.1289 46.3207 25.9478 46.4092 28.3026 46.5129Z" fill="#DD2B37"/>
<path d="M47.7807 55.6562V45.5017H40.8186V40.7923H60.5773V45.5017H53.6305V55.6537L47.7807 55.6562Z" fill="#DD2B37"/>
<path d="M79.4814 40.7695H85.349V48.7551C85.372 54.3746 80.7263 55.9899 75.101 56C69.4757 56.0101 64.8326 54.3746 64.8556 48.7551V40.7695H70.7028V48.3911C70.6824 50.8355 72.7029 51.2552 75.101 51.288C77.4915 51.2552 79.5222 50.8355 79.489 48.3911L79.4814 40.7695Z" fill="#DD2B37"/>
<path d="M103.613 40.7923C107.733 40.7367 110.792 44.1645 110.756 48.2242C110.789 52.2688 107.73 55.7118 103.613 55.6562H90.2626V40.7923H103.613ZM102.521 45.5017H96.1124V50.9417H102.521C104.039 50.9417 104.896 49.7157 104.896 48.2217C104.896 46.7277 104.039 45.5017 102.521 45.5017Z" fill="#DD2B37"/>
<path d="M120.624 40.7695V55.636H114.774V40.7695H120.624Z" fill="#DD2B37"/>
<path d="M145.113 47.6606V48.745C145.135 54.362 140.52 55.9899 134.877 56C129.234 56.0101 124.606 54.362 124.629 48.745V47.6606C124.606 42.031 129.221 40.4157 134.877 40.4056C140.533 40.3955 145.113 42.0411 145.113 47.6606ZM139.263 48.0145C139.298 45.5928 137.265 45.1504 134.877 45.1175C132.477 45.1504 130.446 45.5928 130.479 48.0145V48.3785C130.446 50.8128 132.477 51.2552 134.877 51.2881C137.265 51.2552 139.298 50.8128 139.263 48.3785V48.0145Z" fill="#DD2B37"/>
<path d="M158.937 46.5129C163.124 46.7227 169.007 47.0185 168.994 50.7395C168.994 54.9863 164.083 55.9924 158.815 55.9924C153.547 55.9924 149.192 55.3503 148.636 50.7395H154.758C155.427 51.8897 156.978 52.188 158.81 52.188C160.641 52.188 162.861 51.8897 162.861 50.7395C162.861 50.0848 161.042 49.9811 158.687 49.875C154.501 49.6651 148.618 49.3694 148.631 45.661C148.631 41.4142 153.542 40.3979 158.81 40.3979C164.078 40.3979 168.43 41.0173 168.989 45.661H162.866C162.198 44.4881 160.644 44.2125 158.815 44.2125C156.986 44.2125 154.764 44.4653 154.764 45.661C154.769 46.3208 156.588 46.4092 158.937 46.5129Z" fill="#DD2B37"/>
</g>
<defs>
<clipPath id="clip0_1806_2">
<rect width="187" height="56" fill="white"/>
</clipPath>
</defs>
</svg>
